<?xml version="1.0" encoding="iso-8859-1"?>
<!-- Generator: Adobe Illustrator 19.0.0, SVG Export Plug-In . SVG Version: 6.00 Build 0)  -->
<svg version="1.1" id="Capa_1" xmlns="http://www.w3.org/2000/svg" xmlns:xlink="http://www.w3.org/1999/xlink" x="0px" y="0px"
	 viewBox="0 0 512.001 512.001" style="enable-background:new 0 0 512.001 512.001;" xml:space="preserve">
<polygon style="fill:#DED4B9;" points="69.392,390.095 7.502,480.117 7.502,504.498 504.499,504.498 504.499,481.993 
	444.484,390.095 "/>
<rect x="7.502" y="480.117" style="fill:#F7B000;" width="496.991" height="26.256"/>
<polyline style="fill:#DED4B9;" points="91.898,391.971 91.898,7.502 421.979,7.502 421.979,391.971 "/>
<rect x="129.402" y="45.011" style="fill:#FFFFFF;" width="255.062" height="210.051"/>
<rect x="91.893" y="337.582" style="fill:#F7B000;" width="330.081" height="52.513"/>
<path style="fill:#B0D480;" d="M341.334,232.557H172.543c-11.394,0-20.63-9.236-20.63-20.63V88.147
	c0-11.394,9.236-20.63,20.63-20.63h168.791c11.394,0,20.63,9.236,20.63,20.63v123.78
	C361.964,223.321,352.728,232.557,341.334,232.557z"/>
<path style="fill:#7BB72C;" d="M181.92,120.029c0-11.394,9.236-20.63,20.63-20.63h159.414V88.147c0-11.394-9.236-20.63-20.63-20.63
	H172.543c-11.394,0-20.63,9.236-20.63,20.63v123.78c0,11.394,9.236,20.63,20.63,20.63h9.377V120.029z"/>
<rect x="91.893" y="337.582" style="fill:#FEC108;" width="73.138" height="52.513"/>
<rect x="91.893" y="313.196" style="fill:#FFFFFF;" width="330.081" height="24.381"/>
<rect x="264.435" y="315.077" style="fill:#FF501A;" width="121.9" height="22.505"/>
<rect x="285.07" y="315.077" style="fill:#69777C;" width="76.894" height="50.637"/>
<rect x="91.893" y="313.196" style="fill:#D3D3D3;" width="75.018" height="26.256"/>
<g>
	<rect x="84.391" y="405.099" style="fill:#FF501A;" width="15.004" height="15.004"/>
	<rect x="114.398" y="405.099" style="fill:#FF501A;" width="15.004" height="15.004"/>
	<rect x="399.468" y="427.604" style="fill:#FF501A;" width="15.004" height="15.004"/>
	<rect x="174.413" y="450.11" style="fill:#FF501A;" width="135.033" height="15.004"/>
	<rect x="444.479" y="450.11" style="fill:#FF501A;" width="22.505" height="15.004"/>
	<rect x="121.9" y="277.568" style="fill:#FF501A;" width="15.004" height="15.004"/>
	<rect x="376.963" y="277.568" style="fill:#FF501A;" width="15.004" height="15.004"/>
	<rect x="346.955" y="277.568" style="fill:#FF501A;" width="15.004" height="15.004"/>
	<rect x="316.948" y="277.568" style="fill:#FF501A;" width="15.004" height="15.004"/>
	<rect x="234.428" y="307.575" style="fill:#FF501A;" width="15.004" height="15.004"/>
	<rect x="211.922" y="307.575" style="fill:#FF501A;" width="15.004" height="15.004"/>
</g>
<g>
	<path style="fill:#FFFFFF;" d="M189.422,157.538h-15.004v-39.385c0-15.512,12.62-28.132,28.132-28.132v15.004
		c-7.239,0-13.128,5.889-13.128,13.128V157.538z"/>
	<rect x="174.413" y="165.04" style="fill:#FFFFFF;" width="15.004" height="15.004"/>
	<rect x="309.446" y="337.582" style="fill:#FFFFFF;" width="30.007" height="15.004"/>
</g>
<g>
	<path style="fill:#1D1D1B;" d="M429.48,382.593V0H84.396v382.593h-18.95L0,477.788v34.213h512V479.76l-63.456-97.167
		L429.48,382.593L429.48,382.593z M99.4,345.084h150.037v-15.004H99.4v-7.502h103.15v-15.004H99.4V15.004h315.077v292.571h-15.004
		v15.004h15.004v7.502h-15.004v15.004h15.004v37.509H99.4V345.084z M15.004,496.996v-9.377h196.923v-15.004H21.764l51.576-75.018
		h367.085l48.991,75.018h-29.927v15.004h37.509v9.377H15.004z"/>
	<rect x="226.926" y="472.615" style="fill:#1D1D1B;" width="30.007" height="15.004"/>
	<rect x="271.937" y="472.615" style="fill:#1D1D1B;" width="15.004" height="15.004"/>
	<rect x="144.406" y="405.099" style="fill:#1D1D1B;" width="15.004" height="15.004"/>
	<rect x="174.413" y="405.099" style="fill:#1D1D1B;" width="15.004" height="15.004"/>
	<rect x="204.42" y="405.099" style="fill:#1D1D1B;" width="15.004" height="15.004"/>
	<rect x="234.428" y="405.099" style="fill:#1D1D1B;" width="15.004" height="15.004"/>
	<rect x="264.435" y="405.099" style="fill:#1D1D1B;" width="15.004" height="15.004"/>
	<rect x="294.442" y="405.099" style="fill:#1D1D1B;" width="15.004" height="15.004"/>
	<rect x="324.45" y="405.099" style="fill:#1D1D1B;" width="15.004" height="15.004"/>
	<rect x="354.457" y="405.099" style="fill:#1D1D1B;" width="15.004" height="15.004"/>
	<rect x="384.464" y="405.099" style="fill:#1D1D1B;" width="15.004" height="15.004"/>
	<rect x="414.472" y="405.099" style="fill:#1D1D1B;" width="15.004" height="15.004"/>
	<rect x="84.391" y="450.11" style="fill:#1D1D1B;" width="15.004" height="15.004"/>
	<rect x="114.398" y="450.11" style="fill:#1D1D1B;" width="15.004" height="15.004"/>
	<rect x="144.406" y="450.11" style="fill:#1D1D1B;" width="15.004" height="15.004"/>
	<rect x="324.45" y="450.11" style="fill:#1D1D1B;" width="15.004" height="15.004"/>
	<rect x="354.457" y="450.11" style="fill:#1D1D1B;" width="15.004" height="15.004"/>
	<rect x="384.464" y="450.11" style="fill:#1D1D1B;" width="15.004" height="15.004"/>
	<rect x="414.472" y="450.11" style="fill:#1D1D1B;" width="15.004" height="15.004"/>
	<rect x="69.387" y="427.604" style="fill:#1D1D1B;" width="15.004" height="15.004"/>
	<rect x="99.395" y="427.604" style="fill:#1D1D1B;" width="15.004" height="15.004"/>
	<rect x="129.402" y="427.604" style="fill:#1D1D1B;" width="15.004" height="15.004"/>
	<rect x="159.409" y="427.604" style="fill:#1D1D1B;" width="15.004" height="15.004"/>
	<rect x="189.417" y="427.604" style="fill:#1D1D1B;" width="15.004" height="15.004"/>
	<rect x="219.424" y="427.604" style="fill:#1D1D1B;" width="15.004" height="15.004"/>
	<rect x="249.431" y="427.604" style="fill:#1D1D1B;" width="15.004" height="15.004"/>
	<rect x="279.439" y="427.604" style="fill:#1D1D1B;" width="15.004" height="15.004"/>
	<rect x="309.446" y="427.604" style="fill:#1D1D1B;" width="15.004" height="15.004"/>
	<rect x="339.453" y="427.604" style="fill:#1D1D1B;" width="15.004" height="15.004"/>
	<rect x="369.461" y="427.604" style="fill:#1D1D1B;" width="15.004" height="15.004"/>
	<rect x="429.475" y="427.604" style="fill:#1D1D1B;" width="15.004" height="15.004"/>
	<rect x="46.887" y="450.11" style="fill:#1D1D1B;" width="22.505" height="15.004"/>
	<path style="fill:#1D1D1B;" d="M121.905,262.564h270.066V37.509H121.905V262.564z M136.909,52.513h240.059V247.56H136.909V52.513z"
		/>
	<path style="fill:#1D1D1B;" d="M341.334,60.015H172.543c-15.512,0-28.132,12.62-28.132,28.132v123.78
		c0,15.512,12.62,28.132,28.132,28.132h168.791c15.512,0,28.132-12.62,28.132-28.132V88.147
		C369.466,72.635,356.846,60.015,341.334,60.015z M354.462,211.927c0,7.239-5.889,13.128-13.128,13.128H172.543
		c-7.239,0-13.128-5.889-13.128-13.128V88.147c0-7.239,5.889-13.128,13.128-13.128h168.791c7.239,0,13.128,5.889,13.128,13.128
		V211.927z"/>
	<path style="fill:#1D1D1B;" d="M256.938,345.084h22.505v28.132h90.022v-28.132h22.506v-37.509H256.938V345.084z M294.447,358.212
		v-35.634h60.015v35.634H294.447z M376.968,330.081h-7.502v-7.502h7.502V330.081z M271.942,322.579h7.502v7.502h-7.502V322.579z"/>
</g>
<g>
</g>
<g>
</g>
<g>
</g>
<g>
</g>
<g>
</g>
<g>
</g>
<g>
</g>
<g>
</g>
<g>
</g>
<g>
</g>
<g>
</g>
<g>
</g>
<g>
</g>
<g>
</g>
<g>
</g>
</svg>
