<svg xmlns="http://www.w3.org/2000/svg" xmlns:xlink="http://www.w3.org/1999/xlink" version="1.1" x="0px" y="0px" viewBox="0 0 100 125" style="enable-background:new 0 0 100 100;" xml:space="preserve"><g><g><path d="M45.3,54.6H72c0.6,0,1.2-0.2,1.6-0.7c0.4-0.4,0.7-1,0.6-1.7l-2-28.2c0-1.2-1-2.2-2.3-2.2H43.4c-0.6,0-1.2,0.2-1.6,0.7    c-0.4,0.4-0.7,1-0.6,1.7L43,52.4C43,53.6,44,54.6,45.3,54.6z M66.9,50.5c0.4-0.4,0.6-1,0.6-1.5L66,27c0-0.6-0.3-1.1-0.7-1.5h0.3    c0.8,0,1.5,0.7,1.6,1.5l1.5,22c0,0.4-0.1,0.8-0.4,1.1s-0.7,0.5-1.1,0.5L66.9,50.5C66.8,50.5,66.8,50.5,66.9,50.5z M71.6,24.1    l2,28.2c0,0.4-0.1,0.8-0.4,1.1s-0.7,0.5-1.1,0.5h-0.3l0.1-0.1c0.4-0.4,0.6-1,0.6-1.5l-2-28.2c0-0.6-0.3-1.1-0.7-1.5H70    C70.9,22.6,71.5,23.2,71.6,24.1z M42.3,23c0.3-0.3,0.7-0.5,1.1-0.5H69c0.6,0.3,0.9,0.8,1,1.5l2,28.2c0,0.5-0.2,0.9-0.5,1.3    c-0.1,0.1-0.3,0.3-0.5,0.4H45.3c-0.9,0-1.5-0.7-1.6-1.5l-0.1-1.1h23.5c0.6,0,1.2-0.2,1.6-0.7c0.4-0.4,0.7-1,0.6-1.7l-1.5-22    c0-1.2-1-2.2-2.3-2.2H41.9v-0.6C41.8,23.7,42,23.3,42.3,23z"/></g><g><path d="M70.2,70.9c-0.6,0-1,0.5-1,1s0.5,1,1,1c0.6,0,1-0.5,1-1S70.8,70.9,70.2,70.9z M70.2,72.6c-0.4,0-0.7-0.3-0.7-0.7    s0.3-0.7,0.7-0.7c0.4,0,0.7,0.3,0.7,0.7S70.6,72.6,70.2,72.6z"/></g><g><path d="M73.7,70.9c-0.6,0-1,0.5-1,1s0.5,1,1,1c0.6,0,1-0.5,1-1S74.3,70.9,73.7,70.9z M73.7,72.6c-0.4,0-0.7-0.3-0.7-0.7    s0.3-0.7,0.7-0.7c0.4,0,0.7,0.3,0.7,0.7S74.1,72.6,73.7,72.6z"/></g><g><path d="M69.2,70h5.5c0,0,0.1,0,0.1-0.1c0,0,0.1-0.1,0-0.1l-0.2-5.6c0-0.1-0.1-0.2-0.2-0.2H69c0,0-0.1,0-0.1,0.1    c0,0-0.1,0.1,0,0.1l0.2,5.6C69,69.9,69.1,70,69.2,70z M69.4,69.7v-0.8h5.2v0.8H69.4z M74.4,66.1v0.6h-5.2v-0.6H74.4z M69.3,65.8    v-0.5h5.2v0.5H69.3z M74.5,67.1v0.6h-5.2v-0.6H74.5z M74.5,68v0.6h-5.2V68H74.5z M74.4,64.4V65h-5.2v-0.6H74.4z"/></g><g><path d="M47,68.8c-0.1,0-0.2,0.1-0.2,0.2l0.4,6c0,0.1,0.1,0.2,0.2,0.2l0,0c0.1,0,0.2-0.1,0.2-0.2l-0.4-6    C47.2,68.8,47.1,68.8,47,68.8z"/></g><g><path d="M45.8,68.8c-0.1,0-0.2,0.1-0.2,0.2l0.4,6c0,0.1,0.1,0.2,0.2,0.2l0,0c0.1,0,0.2-0.1,0.2-0.2L46,69    C46,68.8,46,68.8,45.8,68.8z"/></g><g><path d="M44.7,68.8c-0.1,0-0.2,0.1-0.2,0.2l0.4,6c0,0.1,0.1,0.2,0.2,0.2l0,0c0.1,0,0.2-0.1,0.2-0.2l-0.4-6    C44.8,68.8,44.8,68.8,44.7,68.8z"/></g><g><path d="M43.5,68.8c-0.1,0-0.2,0.1-0.2,0.2l0.4,6c0,0.1,0.1,0.2,0.2,0.2l0,0c0.1,0,0.2-0.1,0.2-0.2l-0.4-6    C43.6,68.8,43.6,68.8,43.5,68.8z"/></g><g><path d="M42.3,68.8c-0.1,0-0.2,0.1-0.2,0.2l0.4,6c0,0.1,0.1,0.2,0.2,0.2l0,0c0.1,0,0.2-0.1,0.2-0.2l-0.4-6    C42.5,68.8,42.4,68.8,42.3,68.8z"/></g><g><path d="M41.1,68.8c-0.1,0-0.2,0.1-0.2,0.2l0.4,6c0,0.1,0.1,0.2,0.2,0.2l0,0c0.1,0,0.2-0.1,0.2-0.2l-0.4-6    C41.3,68.8,41.2,68.8,41.1,68.8z"/></g><g><path d="M44.8,67.6C44.8,67.6,44.9,67.5,44.8,67.6l-0.2-2.5c0-0.1-0.1-0.2-0.2-0.2h-0.6H43h-1.9c0,0-0.1,0-0.1,0.1    c0,0-0.1,0.1,0,0.1l0.2,2.4c0,0.1,0.1,0.2,0.2,0.2h1.9h0.9L44.8,67.6C44.7,67.7,44.8,67.6,44.8,67.6z M43,65.3h0.8l0.1,0.8h-2.4    l-0.1-0.8H43z M43.2,67.3h-1.7l-0.1-0.8h2.4l0.1,0.8H43.2z M44.2,67.3l-0.2-2h0.2V67.3L44.2,67.3z"/></g><g><path d="M91.9,77L91.9,77l-8.2-3.8h-0.1h-1.8L81.3,60c0-0.8-0.6-1.4-1.4-1.4H64.5v-0.9h10.9c0.5,0,1-0.2,1.4-0.6    c0.4-0.4,0.6-0.9,0.5-1.4l-2-34.6c0-1-0.9-1.9-1.9-1.9H27.8c-0.2,0-0.4,0.2-0.4,0.4v0.2h-7.1v-0.2c0-0.2-0.2-0.4-0.4-0.4h-6.1    c-1.1,0-1.9,0.9-1.9,1.9v34.6c0,1.1,0.9,1.9,1.9,1.9H17v0.9h-6H9.7c-0.8,0-1.4,0.6-1.4,1.4v17.8c0,0.8,0.6,1.4,1.4,1.4H10    c0,0.6,0.5,1,1.1,1h37.7c0.2,0.2,0.6,0.4,0.9,0.4H57h33.7c0.8,0,1.4-0.6,1.4-1.4v-1.9C92,77.1,92,77.1,91.9,77z M57,76.9L54.9,76    h2.7l2.1,0.9H57z M57,67.9h0.4h1.9v1c0,0.1,0.1,0.2,0.2,0.2h0.6h4v1.5h-3.9h-0.6c0,0-0.1,0-0.1,0.1v0.1v1.1h-1.9h-0.4v-1.1    c0-0.1-0.1-0.2-0.2-0.2h-5.3V70l0.1,0.1h11.6c0.1,0,0.2-0.1,0.2-0.2s-0.1-0.2-0.2-0.2H51.8c-0.1,0-0.1,0-0.1,0.1v-0.7H57    c0,0,0.1,0,0.1-0.1v-0.1L57,67.9z M59.7,67.9H60v0.8h-0.2L59.7,67.9z M64.7,69v1.5h-0.2V69H64.7z M60.1,71.8h-0.2v-0.9h0.2V71.8z     M51.7,70.9h5.1V72c0,0.1,0.1,0.2,0.2,0.2h0.6h2.1h0.6c0,0,0.1,0,0.1-0.1V72v-1.1h3.9h0.6c0.1,0,0.2-0.1,0.2-0.2v-1.9    c0-0.1-0.1-0.2-0.2-0.2h-0.6h-4v-1c0-0.1-0.1-0.2-0.2-0.2h-0.6h-2.1h-0.6c0,0-0.1,0-0.1,0.1v0.1v1h-5.1l-0.2-5.4    c0-0.1,0-0.2,0.1-0.3s0.2-0.1,0.3-0.1h14.8c0.1,0.1,0.1,0.2,0.1,0.3l0.4,10H51.8L51.7,70.9z M80.5,73.9l1.5,0.7h-2.2l-1.5-0.7    H80.5z M87.3,75.6h-2.1l-1.6-0.7h2.1L87.3,75.6z M84.4,75.6h-2.2l-1.6-0.7h2.2L84.4,75.6z M76.5,63.2l0.4,10H68l-0.4-10    c0-0.1,0-0.2-0.1-0.3h8.9C76.5,63,76.5,63.1,76.5,63.2z M71.4,73.9l1.5,0.7h-2.2l-1.5-0.7H71.4z M72.3,73.9h2.2l1.5,0.7h-2.2    L72.3,73.9z M75.3,73.9h2.2l1.5,0.7h-2.2L75.3,73.9z M67.1,62.9c0.1,0.1,0.1,0.2,0.1,0.3l0.4,10h-0.2l-0.4-10c0-0.1,0-0.2-0.1-0.3    C66.9,62.9,67.1,62.9,67.1,62.9z M68.4,73.9l1.5,0.7h-2.2l-1.5-0.7H68.4z M65.3,73.9l1.5,0.7h-2.2l-1.5-0.7H65.3z M62.3,73.9    l1.5,0.7h-2.2l-1.5-0.7H62.3z M59.2,73.9l1.5,0.7h-2.2L57,73.9H59.2z M56.2,73.9l1.5,0.7h-2.4l-1.5-0.7H56.2z M58.5,74.9l1.6,0.7    h-2.4l-1.6-0.7H58.5z M59.3,74.9h2.2l1.6,0.7h-2.2L59.3,74.9z M62.4,74.9h2.2l1.6,0.7H64L62.4,74.9z M65.4,74.9h2.2l1.6,0.7H67    L65.4,74.9z M68.5,74.9h2.2l1.6,0.7H70L68.5,74.9z M71.5,74.9h2.2l1.6,0.7h-2.2L71.5,74.9z M74.6,74.9h2.2l1.6,0.7h-2.2L74.6,74.9    z M77.6,74.9h2.2l1.6,0.7h-2.2L77.6,74.9z M77.3,73.2l-0.4-10c0-0.1,0-0.2-0.1-0.3h0.1c0.2,0,0.3,0.1,0.3,0.3l0.4,9.9L77.3,73.2    L77.3,73.2z M53,73.9l1.5,0.7h-2.7l-1.5-0.7H53z M55.2,74.9l1.6,0.7h-2.7l-1.6-0.7H55.2z M60.5,76.9L58.4,76h2.4l2.1,0.9H60.5z     M63.7,76.9L61.6,76h2.2l2.1,0.9H63.7z M66.8,76.9L64.7,76h2.2l2.1,0.9H66.8z M69.8,76.9L67.7,76H70l2.1,0.9H69.8z M72.9,76.9    L70.8,76H73l2.1,0.9H72.9z M75.9,76.9L73.8,76H76l2.1,0.9H75.9z M79,76.9L76.9,76h2.2l2.1,0.9H79z M82,76.9l-2-1h2.2l2.1,0.9    L82,76.9L82,76.9z M85.1,76.9l-2.1-1h2.2l2.1,0.9L85.1,76.9L85.1,76.9z M88.1,76.9l-2.1-1h2.1l2.1,0.9L88.1,76.9L88.1,76.9z     M85,74.5h-2.1l-1.5-0.7h2.1L85,74.5z M80.5,59.9L81,73.1h-2.7l-0.4-10c0-0.6-0.5-1-1-1H51.8c-0.3,0-0.6,0.1-0.8,0.3    s-0.3,0.5-0.3,0.8l0.4,9.8h-1.2l-0.2-4.2c0-0.1-0.1-0.2-0.2-0.2c-0.1,0-0.2,0.1-0.2,0.2l0.2,4.2h-0.8l-0.2-4.2    c0-0.1-0.1-0.2-0.2-0.2c-0.1,0-0.2,0.1-0.2,0.2l0.3,4.4v0.1v5.3h-9.1c0.3-0.3,0.5-0.6,0.5-1.1L39,59.9c0-0.3-0.1-0.5-0.2-0.7h2    h23.3h15.7C80.2,59.2,80.5,59.5,80.5,59.9z M38.3,59.9L39,77.7c0,0.4-0.3,0.7-0.7,0.7h-1.9c0.1-0.2,0.2-0.4,0.2-0.7l-0.7-17.8    c0-0.3-0.1-0.5-0.2-0.7h1.9C38,59.2,38.3,59.5,38.3,59.9z M63.8,58.5H41.2v-0.9h22.6V58.5z M73.4,19.9c0.7,0,1.2,0.5,1.2,1.2    l2,34.6c0,0.3-0.1,0.7-0.3,0.9C76,56.8,75.7,57,75.4,57H64.2h-0.1H40.8H40c0.3-0.4,0.4-0.8,0.4-1.3l-2-34.6c0-0.4-0.2-0.8-0.4-1.1    h35.4V19.9z M37.8,21.1l2,34.6c0,0.3-0.1,0.6-0.3,0.9C39.3,56.8,39,57,38.6,57h-1.5c0.3-0.3,0.5-0.8,0.5-1.2l-2-34.6    c0-0.5-0.2-0.9-0.5-1.2h1.5C37.2,19.9,37.8,20.5,37.8,21.1z M20.4,31.4h7.1v1.1h-7.1V31.4z M27.5,31h-7.1v-1.1h7.1V31z M27.5,29.5    h-7.1v-1.1h7.1V29.5z M27.5,28h-7.1v-1.1h7.1V28z M27.5,26.5h-7.1v-1.1h7.1V26.5z M27.5,25h-7.1v-1.1h7.1V25z M27.5,23.5h-7.1    v-1.1h7.1V23.5z M27.5,20.5V22h-7.1v-1.5H27.5z M19.7,20.1L19.7,20.1v12.3h-1.1V19.9h1.1V20.1z M12.7,55.7V21.2    c0-0.7,0.5-1.2,1.2-1.2h3.9v12.8c0,0.2,0.2,0.4,0.4,0.4h9.6c0.2,0,0.4-0.2,0.4-0.4V20.2V20h6.3c0.4,0.2,0.7,0.7,0.7,1.2l2,34.6    c0,0.4-0.1,0.7-0.4,1c-0.1,0.1-0.2,0.2-0.3,0.2H22.4h-4.9l0,0H14C13.2,56.9,12.7,56.4,12.7,55.7z M17.8,57.7h10l0,0h12.7v0.9h-2.9    H22.4h-4.6V57.7z M9,77.7V59.9c0-0.4,0.3-0.7,0.7-0.7H11h6.5h4.9h12.8c0.2,0.2,0.4,0.4,0.4,0.7l0.7,17.8c0,0.3-0.1,0.5-0.4,0.7    H9.7C9.3,78.5,9,78.1,9,77.7z M49,79.2v-5.1l7.6,3.4v2.4h-6.9C49.3,79.9,49,79.6,49,79.2z M91.3,79.1c0,0.4-0.3,0.7-0.7,0.7H57.3    v-2.3h34V79.1z"/></g></g><text x="0" y="115" fill="#000000" font-size="5px" font-weight="bold" font-family="'Helvetica Neue', Helvetica, Arial-Unicode, Arial, Sans-serif">Created by Blake Stevenson</text><text x="0" y="120" fill="#000000" font-size="5px" font-weight="bold" font-family="'Helvetica Neue', Helvetica, Arial-Unicode, Arial, Sans-serif">from the Noun Project</text></svg>